# xmcd
#
# Track frame offsets: 
#        150
#        13053
#        25953
#        38803
#        50138
#        63237
#        74650
#        86289
#        97772
#        111683
#        124062
#        136964
#        148050
#        159156
#        175042
#        186676
#        198717
#        210842
#        222931
#        233563
#
# Disc length: 3305 seconds
#
# Revision: 0
# Processed by: cddbd v1.5.2PL0 Copyright (c) Steve Scherf et al.
# Submitted via: ExactAudioCopyFreeDBPlugin 1.0
#
DISCID=240ce714
DTITLE=Various Artist - The In Crowd - Sixties Movers ’N’ Shakers CD1
DYEAR=2014
DGENRE=Soul
TTITLE0=Dobie Gray - The ''In'' Crowd
TTITLE1=Bob and Earl - Harlem Shuffle
TTITLE2=Muddy Waters - I’m Your Hooch Coochie Man
TTITLE3=The Capitols - Cool Jerk
TTITLE4=Booker T and The MG's - Green Onions
TTITLE5=The Isley Brothers - Twist And Shout
TTITLE6=Robert Parker - Barefootin'
TTITLE7=John Lee Hooker - Boom Boom
TTITLE8=The Ad Libs - The Boy From New York City
TTITLE9=Arthur Alexander - You Better Move On
TTITLE10=Ray Charles - Unchain My Heart
TTITLE11=Lee Dorsey - Ya Ya
TTITLE12=Ernie K - Doe - Mother-In-Law
TTITLE13=James Brown - Night Train
TTITLE14=The Drifters - Up On The Roof
TTITLE15=Brook Benton - Kiddin'
TTITLE16=Bobby 'Blue' Bland* - I Pity The Fool
TTITLE17=Sam Cooke - Twistin’ The Night Away
TTITLE18=Johnny Kidd and The Pirates - Shakin’ All Over
TTITLE19=Count Five - Psychotic Reaction
EXTD=
EXTT0=
EXTT1=
EXTT2=
EXTT3=
EXTT4=
EXTT5=
EXTT6=
EXTT7=
EXTT8=
EXTT9=
EXTT10=
EXTT11=
EXTT12=
EXTT13=
EXTT14=
EXTT15=
EXTT16=
EXTT17=
EXTT18=
EXTT19=
PLAYORDER=
